<svg width="24" height="24" fill="none" xmlns="http://www.w3.org/2000/svg"><path d="M20.53 12.007H8.79a2.264 2.264 0 01-2.265-2.265V6.225A2.264 2.264 0 018.79 3.961h11.74a2.264 2.264 0 012.264 2.264v3.517a2.264 2.264 0 01-2.265 2.265z" fill="url(#paint0_linear)"/><path opacity=".5" d="M20.53 3.96H8.79a2.264 2.264 0 00-2.265 2.265v1.913l3.87 3.869h10.134a2.264 2.264 0 002.265-2.265V6.225a2.264 2.264 0 00-2.265-2.264z" fill="url(#paint1_linear)"/><path opacity=".5" d="M20.53 3.96h-5.002v8.047h5.001a2.264 2.264 0 002.265-2.265V6.225a2.264 2.264 0 00-2.265-2.264z" fill="url(#paint2_linear)"/><path d="M5.949 7.698a.737.737 0 00.909.37c2.14-.76 4.929-1.22 7.978-1.22 3.049 0 5.837.46 7.978 1.22a.737.737 0 00.909-.37c.73-1.496-.044-3.298-1.637-3.782-2.028-.617-4.536-.981-7.25-.981-2.715 0-5.223.364-7.251.98-1.593.485-2.367 2.287-1.636 3.783z" fill="url(#paint3_linear)"/><path d="M23.4 4.803a2.7 2.7 0 01-.263 1.459.737.737 0 01-.91.37c-2.14-.76-4.929-1.22-7.978-1.22-3.049 0-5.837.46-7.978 1.22a.736.736 0 01-.597-.047c.01.374.098.752.274 1.113a.737.737 0 00.91.37c2.14-.76 4.929-1.22 7.978-1.22 3.049 0 5.837.46 7.978 1.22a.737.737 0 00.909-.37 2.715 2.715 0 00-.323-2.895z" fill="url(#paint4_linear)"/><path d="M8.735 5.806a.208.208 0 01-.144-.03.169.169 0 01-.041-.252c.041-.051 1.024-1.273 2.807-2.034.1-.042.216-.004.26.086.044.09-.002.198-.102.24-1.682.719-2.638 1.903-2.648 1.915a.208.208 0 01-.132.075z" fill="url(#paint5_linear)"/><path d="M11.057 5.44a.208.208 0 01-.143-.035.169.169 0 01-.033-.253c.043-.05 1.066-1.238 2.873-1.938.101-.04.217.003.257.094.041.092-.008.198-.109.237-1.706.661-2.701 1.813-2.71 1.825a.207.207 0 01-.135.07z" fill="url(#paint6_linear)"/><path d="M13.35 5.194a.208.208 0 01-.14-.044.169.169 0 01-.017-.254c.046-.047 1.14-1.171 2.986-1.76.103-.033.215.016.25.11.036.094-.02.197-.123.23-1.743.556-2.806 1.645-2.817 1.656a.207.207 0 01-.138.062z" fill="url(#paint7_linear)"/><path d="M15.656 5.274c-.05 0-.1-.017-.138-.05a.169.169 0 01-.003-.256c.048-.045 1.201-1.107 3.077-1.595.105-.028.214.028.244.124.03.095-.03.195-.135.222-1.77.46-2.892 1.49-2.903 1.501a.208.208 0 01-.142.054z" fill="url(#paint8_linear)"/><path d="M18.016 5.595c-.05 0-.1-.017-.138-.051a.169.169 0 01-.003-.255c.048-.045 1.201-1.108 3.077-1.596.105-.027.214.028.244.124s-.03.195-.136.223c-1.77.46-2.891 1.49-2.902 1.5a.208.208 0 01-.142.055z" fill="url(#paint9_linear)"/><path d="M15.528 6.856c1.806.042 3.507.245 5.02.575l-4.47-4.47a29.667 29.667 0 00-.55-.018v3.913z" fill="url(#paint10_linear)"/><path d="M13.766 12.102h2.14a.194.194 0 00.194-.194V3.053a.194.194 0 00-.187-.194 29.377 29.377 0 00-2.155 0 .194.194 0 00-.186.194v8.855c0 .107.086.194.194.194z" fill="url(#paint11_linear)"/><path opacity=".5" d="M20.332 12.005h.204a2.26 2.26 0 001.811-.905l-2.015-2.015v2.92z" fill="url(#paint12_linear)"/><path d="M17.694 16.536H5.954a2.264 2.264 0 01-2.264-2.264v-3.518A2.264 2.264 0 015.955 8.49h11.74a2.264 2.264 0 012.264 2.264v3.518a2.264 2.264 0 01-2.265 2.264z" fill="url(#paint13_linear)"/><path opacity=".5" d="M17.694 8.49H5.954a2.264 2.264 0 00-2.264 2.264v1.913l3.87 3.869h10.134a2.264 2.264 0 002.265-2.264v-3.518a2.264 2.264 0 00-2.265-2.264z" fill="url(#paint14_linear)"/><path opacity=".5" d="M17.694 8.49h-5.001v8.046h5.001a2.264 2.264 0 002.264-2.264v-3.518a2.264 2.264 0 00-2.264-2.264z" fill="url(#paint15_linear)"/><path d="M3.113 12.227a.737.737 0 00.909.37c2.14-.76 4.929-1.22 7.978-1.22 3.049 0 5.837.46 7.978 1.22a.737.737 0 00.91-.37c.73-1.496-.045-3.298-1.637-3.782-2.029-.617-4.537-.981-7.251-.981-2.715 0-5.222.364-7.25.98-1.594.485-2.368 2.287-1.637 3.783z" fill="url(#paint16_linear)"/><path d="M20.564 9.332a2.7 2.7 0 01-.263 1.459.737.737 0 01-.91.37c-2.14-.76-4.928-1.22-7.977-1.22-3.05 0-5.837.46-7.978 1.22a.736.736 0 01-.598-.046c.01.373.099.751.275 1.112a.737.737 0 00.909.37c2.14-.76 4.929-1.22 7.978-1.22 3.049 0 5.837.46 7.978 1.22a.737.737 0 00.91-.37 2.715 2.715 0 00-.324-2.895z" fill="url(#paint17_linear)"/><path d="M5.9 10.335a.207.207 0 01-.145-.03.169.169 0 01-.04-.252c.04-.051 1.023-1.273 2.806-2.034.1-.042.216-.004.26.087.044.09-.001.197-.101.24-1.683.718-2.639 1.903-2.648 1.915a.207.207 0 01-.132.074z" fill="url(#paint18_linear)"/><path d="M8.221 9.969a.208.208 0 01-.143-.035.169.169 0 01-.033-.252c.043-.05 1.066-1.239 2.873-1.94.102-.038.217.004.258.096.04.091-.008.197-.11.236-1.705.661-2.7 1.813-2.71 1.825a.208.208 0 01-.135.07z" fill="url(#paint19_linear)"/><path d="M10.515 9.723a.208.208 0 01-.14-.043.169.169 0 01-.018-.255c.046-.047 1.14-1.17 2.986-1.76.103-.033.216.016.25.11.036.094-.02.197-.123.23-1.742.556-2.806 1.645-2.816 1.656a.207.207 0 01-.139.062z" fill="url(#paint20_linear)"/><path d="M12.82 9.803c-.05 0-.1-.017-.138-.05a.169.169 0 01-.003-.255c.048-.045 1.201-1.108 3.077-1.596.105-.027.215.028.245.124.03.095-.031.195-.136.222-1.77.461-2.892 1.49-2.903 1.501a.207.207 0 01-.141.054z" fill="url(#paint21_linear)"/><path d="M15.18 10.124c-.05 0-.1-.017-.138-.051a.169.169 0 01-.003-.255c.048-.045 1.201-1.107 3.077-1.595.105-.028.215.028.245.123.03.096-.031.196-.136.223-1.77.46-2.892 1.49-2.903 1.5a.207.207 0 01-.141.055z" fill="url(#paint22_linear)"/><path d="M12.693 11.385c1.806.042 3.507.245 5.02.575l-4.47-4.47a30.052 30.052 0 00-.55-.018v3.913z" fill="url(#paint23_linear)"/><path d="M10.93 16.631h2.14a.194.194 0 00.194-.194V7.582a.194.194 0 00-.186-.194 29.377 29.377 0 00-2.156 0 .194.194 0 00-.186.194v8.855c0 .107.087.194.194.194z" fill="url(#paint24_linear)"/><path opacity=".5" d="M17.49 16.536h.204a2.26 2.26 0 001.811-.905l-2.015-2.015v2.92z" fill="url(#paint25_linear)"/><path d="M14.858 21.065H3.118a2.264 2.264 0 01-2.264-2.264v-3.518a2.264 2.264 0 012.264-2.264h11.74a2.264 2.264 0 012.264 2.264v3.518a2.264 2.264 0 01-2.264 2.264z" fill="url(#paint26_linear)"/><path opacity=".5" d="M14.858 13.019H3.118a2.264 2.264 0 00-2.264 2.264v1.913l3.869 3.87h10.135a2.264 2.264 0 002.264-2.265v-3.518a2.264 2.264 0 00-2.264-2.264z" fill="url(#paint27_linear)"/><path opacity=".5" d="M14.858 13.019H9.856v8.046h5.002a2.264 2.264 0 002.264-2.264v-3.518a2.264 2.264 0 00-2.264-2.264z" fill="url(#paint28_linear)"/><path d="M.277 16.756a.737.737 0 00.909.37c2.141-.76 4.929-1.22 7.978-1.22 3.05 0 5.837.46 7.978 1.22a.737.737 0 00.91-.37c.73-1.495-.044-3.298-1.637-3.782-2.029-.616-4.536-.98-7.251-.98-2.714 0-5.222.364-7.25.98C.32 13.458-.455 15.26.276 16.756z" fill="url(#paint29_linear)"/><path d="M17.728 13.861c.048.483-.032.986-.263 1.459a.737.737 0 01-.909.37c-2.14-.76-4.929-1.22-7.978-1.22-3.049 0-5.837.46-7.978 1.22a.736.736 0 01-.598-.046c.011.373.099.752.275 1.112a.737.737 0 00.91.37c2.14-.76 4.928-1.22 7.977-1.22 3.05 0 5.837.46 7.978 1.22a.737.737 0 00.91-.37 2.715 2.715 0 00-.324-2.895z" fill="url(#paint30_linear)"/><path d="M3.064 14.864a.208.208 0 01-.144-.03.169.169 0 01-.042-.251c.041-.052 1.024-1.274 2.807-2.034.1-.043.216-.005.26.086.044.09-.001.198-.101.24-1.683.718-2.639 1.903-2.648 1.915a.208.208 0 01-.132.074z" fill="url(#paint31_linear)"/><path d="M5.385 14.498a.208.208 0 01-.143-.035.169.169 0 01-.033-.252c.043-.05 1.066-1.239 2.874-1.94.1-.038.216.004.257.096.04.091-.008.197-.11.236-1.705.662-2.7 1.813-2.71 1.825a.207.207 0 01-.135.07z" fill="url(#paint32_linear)"/><path d="M7.68 14.252a.208.208 0 01-.141-.043.169.169 0 01-.018-.254c.046-.048 1.14-1.172 2.986-1.761.103-.033.216.016.25.11.036.094-.02.197-.123.23-1.742.556-2.806 1.646-2.816 1.656a.207.207 0 01-.139.062z" fill="url(#paint33_linear)"/><path d="M9.985 14.333c-.05 0-.1-.017-.138-.052a.169.169 0 01-.004-.254c.048-.045 1.201-1.108 3.077-1.596.105-.027.215.028.245.124.03.095-.031.195-.136.223-1.77.46-2.892 1.49-2.903 1.5a.208.208 0 01-.141.055z" fill="url(#paint34_linear)"/><path d="M12.344 14.653c-.05 0-.1-.017-.138-.051a.169.169 0 01-.004-.255c.049-.045 1.202-1.107 3.078-1.595.104-.028.214.028.244.123.03.096-.03.196-.136.223-1.77.46-2.891 1.49-2.902 1.5a.207.207 0 01-.142.055z" fill="url(#paint35_linear)"/><path d="M9.856 15.915c1.806.041 3.508.244 5.02.574l-4.47-4.47a29.883 29.883 0 00-.55-.018v3.914z" fill="url(#paint36_linear)"/><path d="M8.094 21.16h2.14a.194.194 0 00.194-.194v-8.854a.194.194 0 00-.186-.194 29.238 29.238 0 00-2.156 0 .194.194 0 00-.186.194v8.854c0 .108.087.194.194.194z" fill="url(#paint37_linear)"/><defs><linearGradient id="paint0_linear" x1="14.66" y1="9.457" x2="14.66" y2="11.281" gradientUnits="userSpaceOnUse"><stop stop-color="#F8F6FB"/><stop offset="1" stop-color="#EFDCFB"/></linearGradient><linearGradient id="paint1_linear" x1="14.897" y1="10.182" x2="14.479" y2="4.818" gradientUnits="userSpaceOnUse"><stop stop-color="#EFDCFB" stop-opacity="0"/><stop offset=".289" stop-color="#C7B6DF" stop-opacity=".289"/><stop offset=".592" stop-color="#A495C7" stop-opacity=".592"/><stop offset=".84" stop-color="#8E80B7" stop-opacity=".84"/><stop offset="1" stop-color="#8679B2"/></linearGradient><linearGradient id="paint2_linear" x1="19.269" y1="8.115" x2="15.708" y2="7.719" gradientUnits="userSpaceOnUse"><stop stop-color="#EFDCFB" stop-opacity="0"/><stop offset=".289" stop-color="#C7B6DF" stop-opacity=".289"/><stop offset=".592" stop-color="#A495C7" stop-opacity=".592"/><stop offset=".84" stop-color="#8E80B7" stop-opacity=".84"/><stop offset="1" stop-color="#8679B2"/></linearGradient><linearGradient id="paint3_linear" x1="14.836" y1="4.298" x2="14.836" y2="8.724" gradientUnits="userSpaceOnUse"><stop stop-color="#FF7044"/><stop offset="1" stop-color="#F82814"/></linearGradient><linearGradient id="paint4_linear" x1="14.391" y1="4.671" x2="16.458" y2="13.201" gradientUnits="userSpaceOnUse"><stop stop-color="#F82814" stop-opacity="0"/><stop offset="1" stop-color="#C0272D"/></linearGradient><linearGradient id="paint5_linear" x1="10.168" y1="4.737" x2="8.857" y2="3.475" gradientUnits="userSpaceOnUse"><stop stop-color="#FF7044"/><stop offset="1" stop-color="#F82814"/></linearGradient><linearGradient id="paint6_linear" x1="12.522" y1="4.412" x2="11.255" y2="3.108" gradientUnits="userSpaceOnUse"><stop stop-color="#FF7044"/><stop offset="1" stop-color="#F82814"/></linearGradient><linearGradient id="paint7_linear" x1="14.885" y1="4.272" x2="13.699" y2="2.892" gradientUnits="userSpaceOnUse"><stop stop-color="#FF7044"/><stop offset="1" stop-color="#F82814"/></linearGradient><linearGradient id="paint8_linear" x1="17.234" y1="4.428" x2="16.125" y2="2.986" gradientUnits="userSpaceOnUse"><stop stop-color="#FF7044"/><stop offset="1" stop-color="#F82814"/></linearGradient><linearGradient id="paint9_linear" x1="19.594" y1="4.748" x2="18.485" y2="3.306" gradientUnits="userSpaceOnUse"><stop stop-color="#FF7044"/><stop offset="1" stop-color="#F82814"/></linearGradient><linearGradient id="paint10_linear" x1="18.431" y1="5.929" x2="14.694" y2="4.478" gradientUnits="userSpaceOnUse"><stop stop-color="#F82814" stop-opacity="0"/><stop offset="1" stop-color="#C0272D"/></linearGradient><linearGradient id="paint11_linear" x1="13.443" y1="7.471" x2="16.497" y2="7.471" gradientUnits="userSpaceOnUse"><stop stop-color="#534854"/><stop offset="1" stop-color="#342434"/></linearGradient><linearGradient id="paint12_linear" x1="22.891" y1="11.762" x2="19.064" y2="9.942" gradientUnits="userSpaceOnUse"><stop stop-color="#EFDCFB" stop-opacity="0"/><stop offset=".289" stop-color="#C7B6DF" stop-opacity=".289"/><stop offset=".592" stop-color="#A495C7" stop-opacity=".592"/><stop offset=".84" stop-color="#8E80B7" stop-opacity=".84"/><stop offset="1" stop-color="#8679B2"/></linearGradient><linearGradient id="paint13_linear" x1="11.824" y1="13.986" x2="11.824" y2="15.81" gradientUnits="userSpaceOnUse"><stop stop-color="#F8F6FB"/><stop offset="1" stop-color="#EFDCFB"/></linearGradient><linearGradient id="paint14_linear" x1="12.062" y1="14.711" x2="11.644" y2="9.347" gradientUnits="userSpaceOnUse"><stop stop-color="#EFDCFB" stop-opacity="0"/><stop offset=".289" stop-color="#C7B6DF" stop-opacity=".289"/><stop offset=".592" stop-color="#A495C7" stop-opacity=".592"/><stop offset=".84" stop-color="#8E80B7" stop-opacity=".84"/><stop offset="1" stop-color="#8679B2"/></linearGradient><linearGradient id="paint15_linear" x1="16.434" y1="12.644" x2="12.872" y2="12.248" gradientUnits="userSpaceOnUse"><stop stop-color="#EFDCFB" stop-opacity="0"/><stop offset=".289" stop-color="#C7B6DF" stop-opacity=".289"/><stop offset=".592" stop-color="#A495C7" stop-opacity=".592"/><stop offset=".84" stop-color="#8E80B7" stop-opacity=".84"/><stop offset="1" stop-color="#8679B2"/></linearGradient><linearGradient id="paint16_linear" x1="12" y1="8.827" x2="12" y2="13.253" gradientUnits="userSpaceOnUse"><stop stop-color="#FF7044"/><stop offset="1" stop-color="#F82814"/></linearGradient><linearGradient id="paint17_linear" x1="11.556" y1="9.2" x2="13.622" y2="17.73" gradientUnits="userSpaceOnUse"><stop stop-color="#F82814" stop-opacity="0"/><stop offset="1" stop-color="#C0272D"/></linearGradient><linearGradient id="paint18_linear" x1="7.331" y1="9.265" x2="6.021" y2="8.003" gradientUnits="userSpaceOnUse"><stop stop-color="#FF7044"/><stop offset="1" stop-color="#F82814"/></linearGradient><linearGradient id="paint19_linear" x1="9.689" y1="8.94" x2="8.421" y2="7.635" gradientUnits="userSpaceOnUse"><stop stop-color="#FF7044"/><stop offset="1" stop-color="#F82814"/></linearGradient><linearGradient id="paint20_linear" x1="12.046" y1="8.803" x2="10.86" y2="7.422" gradientUnits="userSpaceOnUse"><stop stop-color="#FF7044"/><stop offset="1" stop-color="#F82814"/></linearGradient><linearGradient id="paint21_linear" x1="14.398" y1="8.957" x2="13.289" y2="7.515" gradientUnits="userSpaceOnUse"><stop stop-color="#FF7044"/><stop offset="1" stop-color="#F82814"/></linearGradient><linearGradient id="paint22_linear" x1="16.758" y1="9.277" x2="15.649" y2="7.835" gradientUnits="userSpaceOnUse"><stop stop-color="#FF7044"/><stop offset="1" stop-color="#F82814"/></linearGradient><linearGradient id="paint23_linear" x1="15.596" y1="10.458" x2="11.858" y2="9.007" gradientUnits="userSpaceOnUse"><stop stop-color="#F82814" stop-opacity="0"/><stop offset="1" stop-color="#C0272D"/></linearGradient><linearGradient id="paint24_linear" x1="10.608" y1="12" x2="13.662" y2="12" gradientUnits="userSpaceOnUse"><stop stop-color="#534854"/><stop offset="1" stop-color="#342434"/></linearGradient><linearGradient id="paint25_linear" x1="20.049" y1="16.293" x2="16.222" y2="14.473" gradientUnits="userSpaceOnUse"><stop stop-color="#EFDCFB" stop-opacity="0"/><stop offset=".289" stop-color="#C7B6DF" stop-opacity=".289"/><stop offset=".592" stop-color="#A495C7" stop-opacity=".592"/><stop offset=".84" stop-color="#8E80B7" stop-opacity=".84"/><stop offset="1" stop-color="#8679B2"/></linearGradient><linearGradient id="paint26_linear" x1="8.988" y1="18.515" x2="8.988" y2="20.34" gradientUnits="userSpaceOnUse"><stop stop-color="#F8F6FB"/><stop offset="1" stop-color="#EFDCFB"/></linearGradient><linearGradient id="paint27_linear" x1="9.225" y1="19.24" x2="8.807" y2="13.876" gradientUnits="userSpaceOnUse"><stop stop-color="#EFDCFB" stop-opacity="0"/><stop offset=".289" stop-color="#C7B6DF" stop-opacity=".289"/><stop offset=".592" stop-color="#A495C7" stop-opacity=".592"/><stop offset=".84" stop-color="#8E80B7" stop-opacity=".84"/><stop offset="1" stop-color="#8679B2"/></linearGradient><linearGradient id="paint28_linear" x1="13.598" y1="17.173" x2="10.036" y2="16.777" gradientUnits="userSpaceOnUse"><stop stop-color="#EFDCFB" stop-opacity="0"/><stop offset=".289" stop-color="#C7B6DF" stop-opacity=".289"/><stop offset=".592" stop-color="#A495C7" stop-opacity=".592"/><stop offset=".84" stop-color="#8E80B7" stop-opacity=".84"/><stop offset="1" stop-color="#8679B2"/></linearGradient><linearGradient id="paint29_linear" x1="9.164" y1="13.356" x2="9.164" y2="17.782" gradientUnits="userSpaceOnUse"><stop stop-color="#FF7044"/><stop offset="1" stop-color="#F82814"/></linearGradient><linearGradient id="paint30_linear" x1="8.72" y1="13.73" x2="10.786" y2="22.259" gradientUnits="userSpaceOnUse"><stop stop-color="#F82814" stop-opacity="0"/><stop offset="1" stop-color="#C0272D"/></linearGradient><linearGradient id="paint31_linear" x1="4.494" y1="13.794" x2="3.184" y2="12.532" gradientUnits="userSpaceOnUse"><stop stop-color="#FF7044"/><stop offset="1" stop-color="#F82814"/></linearGradient><linearGradient id="paint32_linear" x1="6.854" y1="13.467" x2="5.587" y2="12.163" gradientUnits="userSpaceOnUse"><stop stop-color="#FF7044"/><stop offset="1" stop-color="#F82814"/></linearGradient><linearGradient id="paint33_linear" x1="9.207" y1="13.333" x2="8.021" y2="11.952" gradientUnits="userSpaceOnUse"><stop stop-color="#FF7044"/><stop offset="1" stop-color="#F82814"/></linearGradient><linearGradient id="paint34_linear" x1="11.562" y1="13.486" x2="10.453" y2="12.044" gradientUnits="userSpaceOnUse"><stop stop-color="#FF7044"/><stop offset="1" stop-color="#F82814"/></linearGradient><linearGradient id="paint35_linear" x1="13.922" y1="13.806" x2="12.812" y2="12.364" gradientUnits="userSpaceOnUse"><stop stop-color="#FF7044"/><stop offset="1" stop-color="#F82814"/></linearGradient><linearGradient id="paint36_linear" x1="12.76" y1="14.987" x2="9.022" y2="13.536" gradientUnits="userSpaceOnUse"><stop stop-color="#F82814" stop-opacity="0"/><stop offset="1" stop-color="#C0272D"/></linearGradient><linearGradient id="paint37_linear" x1="7.772" y1="16.529" x2="10.826" y2="16.529" gradientUnits="userSpaceOnUse"><stop stop-color="#534854"/><stop offset="1" stop-color="#342434"/></linearGradient></defs></svg>