<svg width="24" height="24" fill="none" xmlns="http://www.w3.org/2000/svg"><g clip-path="url(#clip0)"><path d="M22.65 14.146a1.566 1.566 0 01-1.57 1.57H2.92a1.57 1.57 0 010-3.14h18.16a1.57 1.57 0 011.57 1.57z" fill="#884D00"/><path d="M22.51 13.496a1.566 1.566 0 01-1.43.919H2.92a1.571 1.571 0 01-1.43-.919 1.572 1.572 0 011.43-.92h18.16a1.57 1.57 0 011.43.92z" fill="#AA6100"/><path d="M24 16.983c0 2.022-.936 3.525-2.45 4.522-1.514.997-3.605 1.488-5.915 1.488h-7.27c-4.62 0-8.365-1.965-8.365-6.01 0-.226.056-.44.158-.631.085-.164.204-.312.348-.438a1.852 1.852 0 011.221-.443h20.546c.696 0 1.296.36 1.57.88.1.193.157.407.157.632z" fill="#FFA733"/><path d="M23.842 16.352c-.326 1.346-1.142 2.395-2.292 3.152-1.514.998-3.605 1.49-5.915 1.49h-7.27c-4.065 0-7.452-1.522-8.208-4.642.086-.164.205-.312.349-.438a1.852 1.852 0 011.221-.443h20.546c.696 0 1.296.361 1.57.88z" fill="#FFB655"/><path d="M18.674 11.918l-4.06 4.06a2.21 2.21 0 01-3.125 0l-4.06-4.06h11.245z" fill="#EEBF00"/><path d="M18.674 11.918l-4.06 4.06c-.102.102-.21.192-.326.27-.31-.106-.6-.282-.847-.53l-3.8-3.8h9.033z" fill="#FFD422"/><path d="M23.544 12.485c0 .212-.035.43-.11.642-.299.832-1.097 1.155-1.72.695l-.745-.55c-.52-.385-1.185-.228-1.562.37l-.031.05c-.362.575-.992.746-1.507.41l-1.67-1.093c-.386-.252-.848-.224-1.213.073l-1.339 1.089a1.001 1.001 0 01-1.269.033l-1.527-1.132a1 1 0 00-1.257.025L8.204 14.2a.999.999 0 01-1.23.045l-1.8-1.25a.992.992 0 00-1.14-.019l-1.68 1.099c-1.118.144-1.662-.678-1.662-.678a1.874 1.874 0 01-.15-1.48c.173-.553.59-.98 1.133-.98h20.651c.532 0 .957.42 1.132.978.056.178.086.371.086.569z" fill="#6DC82A"/><path d="M23.457 11.916a1.379 1.379 0 01-.024.072c-.298.833-1.096 1.156-1.718.696l-.746-.551c-.521-.385-1.185-.227-1.562.37l-.032.051c-.361.575-.991.746-1.506.41l-1.67-1.093c-.386-.253-.848-.225-1.213.072l-1.339 1.09a1.001 1.001 0 01-1.269.033l-1.527-1.132a1 1 0 00-1.257.024l-1.391 1.105a1 1 0 01-1.229.045l-1.8-1.251a.99.99 0 00-1.14-.018l-1.68 1.098C1.237 13.08.693 12.26.693 12.26a1.746 1.746 0 01-.15-.342c.173-.553.59-.98 1.132-.98h20.652c.532 0 .957.42 1.131.978z" fill="#7ED63E"/><path d="M23.128 9.934a1.575 1.575 0 01-1.573 1.606c-2.82 0-10.332-.063-11.465-.026l-.075.003c-1.43.054-1.757.283-1.757 1.046v2.79a.519.519 0 01-.52.52.52.52 0 00-.52.52v1.215a1.519 1.519 0 01-1.523 1.516h-.038a1.479 1.479 0 01-1.479-1.483l.007-2.2a.611.611 0 01.613-.612.613.613 0 00.613-.613v-1.653c0-.565-.457-1.023-1.022-1.023H2.475C1.614 11.54.89 10.86.872 10a1.574 1.574 0 011.573-1.607h19.078c.862 0 1.588.68 1.605 1.541z" fill="#FF3501"/><path d="M23.128 9.934c.003.163-.018.32-.06.467-2.986-.003-10.12-.062-11.221-.026-1.495.05-1.832.274-1.832 1.05v.091c-1.43.055-1.757.284-1.757 1.046v2.79a.519.519 0 01-.52.52.52.52 0 00-.52.521v1.215c0 .124-.014.243-.042.359a1.48 1.48 0 01-1.242-1.465l.007-2.2a.61.61 0 01.613-.61.613.613 0 00.614-.614v-1.654c0-.565-.458-1.022-1.023-1.022H4.232c-.862 0-1.586-.68-1.604-1.541-.003-.163.018-.32.06-.468h18.835c.862 0 1.587.68 1.605 1.541z" fill="#FF5023"/><path d="M14.127 6.794l-3.481 3.483a3.093 3.093 0 01-4.38 0L2.784 6.794h11.343z" fill="#EEBF00"/><path d="M14.127 6.794l-3.482 3.483c-.348.349-.76.597-1.198.744a3.07 3.07 0 01-1.197-.744L4.767 6.794h9.36z" fill="#FFD422"/><path d="M24 7.284l-.002.077a1.293 1.293 0 01-1.294 1.22H1.296C.581 8.58 0 8 0 7.283 0 5.73.72 4.561 1.808 3.681c.882-.714 2.007-1.238 3.185-1.622C8.29.987 12 1.007 12 1.007s12-.065 12 6.277z" fill="#FFA733"/><path d="M24 7.284c0 .026 0 .051-.002.077H3.93c-.716 0-1.296-.581-1.296-1.297 0-1.553.72-2.723 1.807-3.602.175-.142.359-.276.551-.403C8.29.987 12 1.007 12 1.007s12-.065 12 6.277z" fill="#FFB655"/><path d="M18.45 3.274a.549.549 0 01-.797.754c-.208-.22-.591-.983-.371-1.191.22-.208.96.217 1.168.437zM15.542 5.986a.549.549 0 11-1.024.393c-.109-.283-.172-1.134.11-1.243.283-.108.806.567.914.85zM12.549 3.73a.549.549 0 11-1.097 0c0-.304.245-1.121.548-1.121.303 0 .549.817.549 1.12zM9.533 6.33a.549.549 0 01-1.063-.275c.076-.293.518-1.023.812-.948.293.076.326.93.25 1.222zM6.514 3.94a.549.549 0 01-.987-.479c.132-.272.71-.9.982-.769.273.132.137.975.005 1.248z" fill="#FFF5CC"/></g><defs><clipPath id="clip0"><path fill="#fff" d="M0 0h24v24H0z"/></clipPath></defs></svg>