<svg width="24" height="25" fill="none" xmlns="http://www.w3.org/2000/svg"><path d="M15.73 6.933a2.624 2.624 0 00-5.21 0 1.125 1.125 0 00.355 2.192c.125 0 1.506.75 2.25.75s2.126-.75 2.25-.75a1.125 1.125 0 00.355-2.192z" fill="#ED8989"/><path d="M13.125 20.375L9.75 9.125h6.75l-3.375 11.25z" fill="#A36F58"/><path d="M10.125 14.375h12.75v6h-12.75v-6z" fill="#ED6F6D"/><path d="M10.125 16.25h12.75v2.25h-12.75v-2.25z" fill="#EB423F"/><path d="M19.875 12.875a1.125 1.125 0 100-2.25 1.125 1.125 0 000 2.25z" fill="#C7312E"/><path d="M19.875 11.75a.375.375 0 01-.375-.374 2.037 2.037 0 00-.122-.634c-.171-.441-.44-.492-.628-.492a.375.375 0 010-.75c.621 0 1.095.353 1.335.993.102.283.158.581.165.882a.375.375 0 01-.375.375z" fill="#2E9163"/><path d="M21.375 12.875h-11.25v1.5h11.25v6h1.5v-7.5h-1.5zM14.25 7.625a.375.375 0 01-.375-.375.75.75 0 00-.75-.75.375.375 0 010-.75 1.502 1.502 0 011.5 1.5.375.375 0 01-.375.375z" fill="#FFC9C9"/><path d="M11.25 10.25h-1.163l.225.75h.938a.375.375 0 100-.75zM16.163 10.25h-3.038a.375.375 0 00-.351.243l-1.125 3a.376.376 0 10.702.264L13.385 11h.72l-.21.631a.376.376 0 00.237.475.375.375 0 00.474-.237l.29-.869h1.042l.225-.75z" fill="#5E3D30"/><path d="M1.875 16.625v.75l.608 2.432a.75.75 0 00.728.568h9.328a.75.75 0 00.728-.568l.608-2.432v-.75h-12z" fill="#A36F58"/><path d="M13.875 14.905c.48.515.75 1.1.75 1.72V17c0 .414-.504.75-1.125.75s-1.125-.336-1.125-.75c0 .414-.504.75-1.125.75s-1.125-.336-1.125-.75c0 .414-.504.75-1.125.75s-1.125-.336-1.125-.75c0 .414-.504.75-1.125.75s-1.125-.336-1.125-.75c0 .414-.504.75-1.125.75s-1.125-.336-1.125-.75c0 .414-.504.75-1.125.75s-1.125-.336-1.125-.75v-.375c0-.62.27-1.205.75-1.72v-.155c0-2.278 4.125-3 6-3s6 .722 6 3v.155z" fill="#FFB632"/><path d="M5.625 14a.375.375 0 01-.119-.73l1.125-.376a.375.375 0 01.238.712l-1.125.375a.38.38 0 01-.119.019zM7.875 15.125a.375.375 0 01-.375-.375V14a.375.375 0 01.75 0v.75a.375.375 0 01-.375.375zM10.125 14a.377.377 0 01-.119-.02l-1.125-.374a.375.375 0 01.237-.712l1.125.375a.375.375 0 01-.118.731z" fill="#EBA72E"/></svg>