<svg width="24" height="24" fill="none" xmlns="http://www.w3.org/2000/svg"><path d="M17.25 2.625H13.5v-.75a.75.75 0 01.75-.75h2.25a.75.75 0 01.75.75v.75zM11.625 7.875h7.5v5.25h-7.5v-5.25z" fill="#D13330"/><path d="M19.125 6.848v1.027h-7.5V6.848a1.5 1.5 0 01.271-.86l2.354-3.363h2.25l2.354 3.363a1.5 1.5 0 01.271.86zM16.875 21.75c0 .621-.672 1.125-1.5 1.125s-1.5-.504-1.5-1.125a1.125 1.125 0 11-2.25 0l.375-6-.375-2.625h7.5l-.375 2.625.375 6a1.125 1.125 0 11-2.25 0z" fill="#452D23"/><path d="M11.625 12.375v-1.5h-6v1.5l-.75 1.5v7.5l.75 1.5h6l.75-1.5v-7.5l-.75-1.5z" fill="#DADCDE"/><path d="M11.625 12.375h-.75a.375.375 0 010-.75h.75v.75zM5.625 11.625h3.75a.375.375 0 110 .75h-3.75v-.75z" fill="#C3C6C7"/><path d="M4.875 13.875h7.5v7.5h-7.5v-7.5z" fill="#D13330"/><path d="M9.59 21.375c.66-1.163 1.285-2.25 1.285-4.125 0-1.177-.403-2.3-.827-3.375h-1.5c.424 1.075.827 2.198.827 3.375 0 1.875-.625 2.962-1.284 4.125h1.5z" fill="#E9EEF2"/></svg>