<svg width="24" height="24" fill="none" xmlns="http://www.w3.org/2000/svg"><g clip-path="url(#clip0)"><path d="M10.541 4.607S3.251 9.067.554 21.19c-.2.902.831 1.569 1.57 1.013 3.232-2.43 10.102-6.772 19.61-8.333a1.526 1.526 0 001.04-2.327c-1.435-2.257-4.798-5.732-12.233-6.936z" fill="url(#paint0_linear)"/><path d="M22.757 11.515c-10.446 1.27-17.988 6.009-21.422 8.591a.98.98 0 01-.572.203c-.072.29-.142.583-.209.883-.2.901.832 1.566 1.57 1.011 3.232-2.431 10.105-6.774 19.614-8.334a1.523 1.523 0 001.019-2.354z" fill="url(#paint1_linear)"/><path d="M23.158 12.414s-1.9-6.817-13.262-8.392c0 0-7.258 4.399-9.873 16.07-.194.868.84 1.488 1.576.943.28-.208.588-.43.923-.665a.633.633 0 01.996.52v.036a.98.98 0 101.958 0V19.9c0-.89.487-1.71 1.269-2.137a47.566 47.566 0 016.767-3.03.633.633 0 01.846.597.98.98 0 001.959 0v-1.26c0-.142.094-.267.23-.305l.007-.002a.318.318 0 01.404.307v3.19a.98.98 0 001.959 0v-2.723c0-.807.57-1.505 1.363-1.66.933-.18 1.892-.336 2.878-.463z" fill="url(#paint2_linear)"/><path d="M9.896 4.022s-1.386.84-3.164 2.76L16 16.05a.975.975 0 00.317-.72v-1.26c0-.142.094-.266.23-.305l.007-.002a.318.318 0 01.405.307v2.939l1.204 1.204a.98.98 0 00.754-.952v-2.723c0-.808.57-1.506 1.364-1.66a45.757 45.757 0 012.877-.464S21.259 5.598 9.896 4.022z" fill="url(#paint3_linear)"/><path d="M12.265 6.31a2.261 2.261 0 00-.335-.308c-1.039-.783-2.722-.783-3.76 0-.985.743-1.036 1.922-.154 2.71l7.566 7.566a.979.979 0 00.735-.948v-1.26c0-.142.095-.266.231-.305l.007-.002a.318.318 0 01.404.307v3.191c0 .234.082.45.22.618.066.069.14.135.22.2a.98.98 0 001.519-.817v-2.724c0-.433.163-.834.437-1.137l-7.09-7.09z" fill="url(#paint4_linear)"/><path d="M8.6 9.458c-.36-.417-1.01-.695-1.753-.695-1.133 0-2.051.647-2.051 1.446 0 .34.168.654.448.9l4.94 4.957a47.446 47.446 0 013.329-1.332.626.626 0 01.32-.028L8.6 9.458z" fill="url(#paint5_linear)"/><path d="M17.013 10.632c-.365-.401-1.002-.667-1.728-.667-1.133 0-2.052.647-2.052 1.445 0 .033.002.065.005.097-.885-.468-2.114-.405-2.905.192-.833.628-.883 1.623-.151 2.295l1.454 1.455c.606-.246 1.231-.485 1.877-.715a.633.633 0 01.846.596.98.98 0 001.958 0v-1.26c0-.142.095-.266.231-.305l.007-.002a.318.318 0 01.404.307v3.191a.98.98 0 001.959 0v-2.723c0-.54.254-1.03.66-1.342l-2.565-2.564z" fill="url(#paint6_linear)"/><path d="M10.041 16.13l-1.683-1.683c-.364-.401-1.002-.667-1.728-.667-.889 0-1.645.398-1.93.955-.83-.273-1.833-.153-2.512.359-.833.628-.883 1.622-.151 2.295l3.44 3.44V19.9c0-.89.486-1.71 1.268-2.136a47.497 47.497 0 013.296-1.634z" fill="url(#paint7_linear)"/><path d="M4.601 12.04a.174.174 0 10-.308-.163.174.174 0 00.308.164zM4.029 12.111a.138.138 0 10-.13.243.138.138 0 00.13-.243zM4.18 12.829a.083.083 0 10-.078.147.083.083 0 00.078-.147zM5.37 13.058a.174.174 0 10-.01.349.174.174 0 00.01-.349zM6.277 11.825a.138.138 0 10-.008.275.138.138 0 00.008-.275zM4.998 11.877a.083.083 0 10-.004.166.083.083 0 00.004-.166zM4.725 12.592a.129.129 0 10.057.251.129.129 0 00-.057-.251zM4.869 12.232a.102.102 0 10.045.199.102.102 0 00-.045-.199zM4.455 12.431a.061.061 0 10-.027-.12.061.061 0 00.027.12zM7.834 11.526a.174.174 0 10-.308-.164.174.174 0 00.308.164zM6.99 13.025a.138.138 0 10-.13.243.138.138 0 00.13-.243zM6.772 12.268a.083.083 0 10-.078.146.083.083 0 00.078-.146zM8.784 11.761a.174.174 0 10-.01.348.174.174 0 00.01-.348zM8.764 11.528a.138.138 0 10-.275-.007.138.138 0 00.275.007zM8.231 11.362a.083.083 0 10-.005.166.083.083 0 00.005-.166zM7.48 12.566a.129.129 0 10.056.252.129.129 0 00-.057-.252zM8.101 11.717a.102.102 0 10.046.198.102.102 0 00-.046-.198zM7.688 11.916a.061.061 0 10-.027-.12.061.061 0 00.027.12zM9.642 14.323a.174.174 0 10-.309-.163.174.174 0 00.309.163zM9.07 14.394a.138.138 0 10-.13.243.138.138 0 00.13-.243zM9.22 15.111a.083.083 0 10-.077.147.083.083 0 00.078-.147zM10.41 15.34a.174.174 0 10-.01.35.174.174 0 00.01-.35zM18.207 11.41a.138.138 0 10-.248.118.138.138 0 00.248-.118zM10.039 14.16a.083.083 0 10-.005.165.083.083 0 00.005-.166zM9.765 14.874a.129.129 0 10.057.252.129.129 0 00-.057-.252zM9.91 14.515a.102.102 0 10.045.198.102.102 0 00-.046-.198zM9.496 14.714a.061.061 0 10-.028-.12.061.061 0 00.028.12zM9.654 6.717a.174.174 0 10-.309-.164.174.174 0 00.309.164zM17.46 12.59a.138.138 0 10-.275-.005.138.138 0 00.275.004zM18.036 12.052a.083.083 0 10-.166-.003.083.083 0 00.166.003zM10.603 6.952a.174.174 0 10-.01.348.174.174 0 00.01-.348zM10.584 6.719a.138.138 0 10-.275-.008.138.138 0 00.275.008zM10.051 6.553a.083.083 0 10-.005.166.083.083 0 00.005-.166zM18.091 12.818a.129.129 0 10-.198.165.129.129 0 00.198-.165zM9.921 6.908a.102.102 0 10.046.198.102.102 0 00-.046-.198zM9.508 7.107a.061.061 0 10-.027-.12.061.061 0 00.027.12zM14.411 10.33a.174.174 0 10.296.185.174.174 0 00-.296-.185zM14.987 10.301a.138.138 0 10.147-.233.138.138 0 00-.147.233zM14.889 9.574a.083.083 0 10.088-.14.083.083 0 00-.088.14zM13.718 9.26a.174.174 0 10.035-.347.174.174 0 00-.035.347zM12.724 10.425a.138.138 0 10.028-.274.138.138 0 00-.028.274zM14.003 10.465a.083.083 0 10.017-.166.083.083 0 00-.017.166zM14.328 9.771a.129.129 0 10-.04-.255.129.129 0 00.04.255zM14.158 10.12a.102.102 0 10-.03-.201.102.102 0 00.03.2zM14.585 9.951a.061.061 0 10.019.121.061.061 0 00-.019-.121zM11.15 10.61a.174.174 0 10.295.186.174.174 0 00-.295-.185zM12.1 9.176a.138.138 0 10.146-.234.138.138 0 00-.146.234zM12.263 9.947a.083.083 0 10.088-.14.083.083 0 00-.088.14zM10.22 10.307a.174.174 0 10.035-.346.174.174 0 00-.035.346zM10.222 10.54a.138.138 0 10.274.028.138.138 0 00-.274-.027zM10.742 10.745a.083.083 0 10.017-.165.083.083 0 00-.017.165zM11.579 9.598a.129.129 0 10-.04-.255.129.129 0 00.04.255zM10.897 10.4a.102.102 0 10-.03-.2.102.102 0 00.03.2zM11.324 10.232a.061.061 0 10.019.121.061.061 0 00-.02-.121zM4.52 18.597a.174.174 0 10.345.05.174.174 0 00-.345-.05zM5.035 18.337a.138.138 0 10.039-.272.138.138 0 00-.039.272zM4.65 17.713a.083.083 0 10.023-.164.083.083 0 00-.023.164zM3.452 17.9a.174.174 0 10-.109-.33.174.174 0 00.11.33zM3.017 19.369a.138.138 0 10-.086-.262.138.138 0 00.086.262zM4.202 18.886a.083.083 0 10-.052-.157.083.083 0 00.052.157zM4.218 18.12a.129.129 0 10-.14-.216.129.129 0 00.14.217zM4.204 18.508a.102.102 0 10-.11-.171.102.102 0 00.11.171zM4.525 18.18a.061.061 0 10.066.104.061.061 0 00-.066-.103zM1.653 20.177a.174.174 0 10.345.05.174.174 0 00-.345-.05zM1.94 18.48a.138.138 0 10.038-.272.138.138 0 00-.039.272zM2.401 19.12a.083.083 0 10.024-.165.083.083 0 00-.024.164zM.68 20.277a.174.174 0 10-.109-.33.174.174 0 00.109.33zM.777 20.49a.138.138 0 10.262-.086.138.138 0 00-.262.086zM1.335 20.466a.083.083 0 10-.052-.158.083.083 0 00.052.158zM1.634 19.078a.129.129 0 10-.139-.217.129.129 0 00.14.217zM1.337 20.088a.102.102 0 10-.11-.171.102.102 0 00.11.17zM1.658 19.76a.061.061 0 10.067.104.061.061 0 00-.067-.104z" fill="#FFEAA2"/><path d="M10.237 10.425c.597 0 1.08-.341 1.08-.762 0-.42-.483-.761-1.08-.761-.597 0-1.08.34-1.08.761 0 .42.483.761 1.08.761z" fill="url(#paint8_linear)"/><path d="M10.122 9.376a.173.173 0 100-.346.173.173 0 000 .346z" fill="url(#paint9_linear)"/><path d="M9.802 9.786a.136.136 0 100-.273.136.136 0 000 .273z" fill="url(#paint10_linear)"/><path d="M10.396 9.846a.082.082 0 100-.164.082.082 0 000 .164z" fill="url(#paint11_linear)"/><path d="M5.762 14.3c.597 0 1.08-.34 1.08-.76 0-.421-.483-.762-1.08-.762-.596 0-1.08.34-1.08.761 0 .42.484.762 1.08.762z" fill="url(#paint12_linear)"/><path d="M5.648 13.252a.173.173 0 100-.345.173.173 0 000 .345z" fill="url(#paint13_linear)"/><path d="M5.327 13.662a.136.136 0 100-.273.136.136 0 000 .273z" fill="url(#paint14_linear)"/><path d="M5.921 13.722a.082.082 0 100-.164.082.082 0 000 .164z" fill="url(#paint15_linear)"/><path d="M11.333 15.415c.597 0 1.08-.34 1.08-.761 0-.42-.483-.761-1.08-.761-.597 0-1.08.34-1.08.76 0 .421.483.762 1.08.762z" fill="url(#paint16_linear)"/><path d="M11.219 14.366a.173.173 0 100-.345.173.173 0 000 .345z" fill="url(#paint17_linear)"/><path d="M10.898 14.777a.136.136 0 100-.273.136.136 0 000 .273z" fill="url(#paint18_linear)"/><path d="M11.492 14.837a.082.082 0 100-.165.082.082 0 000 .165z" fill="url(#paint19_linear)"/><path d="M19.302 12.895c.596 0 1.08-.34 1.08-.761 0-.42-.484-.762-1.08-.762-.597 0-1.08.341-1.08.762 0 .42.483.761 1.08.761z" fill="url(#paint20_linear)"/><path d="M19.187 11.846a.173.173 0 100-.345.173.173 0 000 .345z" fill="url(#paint21_linear)"/><path d="M18.866 12.256a.136.136 0 100-.272.136.136 0 000 .272z" fill="url(#paint22_linear)"/><path d="M19.46 12.317a.082.082 0 100-.165.082.082 0 000 .165z" fill="url(#paint23_linear)"/><path d="M10.295 5.897c.597 0 1.08-.34 1.08-.761 0-.42-.483-.762-1.08-.762-.597 0-1.08.341-1.08.762 0 .42.483.761 1.08.761z" fill="url(#paint24_linear)"/><path d="M10.18 4.848a.173.173 0 100-.345.173.173 0 000 .345z" fill="url(#paint25_linear)"/><path d="M9.86 5.258a.136.136 0 100-.272.136.136 0 000 .272z" fill="url(#paint26_linear)"/><path d="M10.454 5.319a.082.082 0 100-.165.082.082 0 000 .165z" fill="url(#paint27_linear)"/><path d="M11.93 6.002c-1.039-.783-2.722-.783-3.76 0-1.04.783-1.04 2.053 0 2.836 1.038.783 2.721.783 3.76 0 1.038-.783 1.038-2.053 0-2.836zM8.855 7.93c-.659-.434-.659-1.139 0-1.573.66-.434 1.729-.434 2.388 0 .66.434.66 1.139 0 1.573-.659.434-1.728.434-2.388 0z" fill="url(#paint28_linear)"/><path d="M8.485 8.396c.864.627 2.265.627 3.128 0 .864-.629.864-1.646 0-2.274-.864-.628-2.264-.628-3.128 0-.863.628-.864 1.646 0 2.274zm2.758-2.039c.66.434.66 1.139 0 1.573-.66.434-1.728.434-2.387 0-.66-.435-.66-1.139 0-1.573.659-.434 1.728-.434 2.387 0z" fill="url(#paint29_linear)"/><path d="M1.503 18.105c.389.15.885.039 1.108-.249.044-.056.024-.123-.037-.19-.067-.076-.043-.175.05-.236l.015-.01c.12-.079.093-.217-.053-.27l-.58-.207c-.146-.052-.32.013-.34.127-.016.088-.118.157-.244.162-.1.004-.18.029-.22.08-.223.288-.088.643.301.793z" fill="url(#paint30_linear)"/><path d="M5.397 15.094c-.886-.669-2.323-.669-3.21 0-.886.668-.886 1.752 0 2.42.887.669 2.324.669 3.21 0 .887-.668.887-1.752 0-2.42zm-2.624 1.645c-.562-.37-.562-.972 0-1.342.563-.371 1.476-.37 2.038 0 .563.37.563.972 0 1.342-.562.37-1.475.37-2.038 0z" fill="url(#paint31_linear)"/><path d="M2.458 17.137c.737.535 1.933.535 2.67 0 .737-.536.737-1.405 0-1.941-.738-.536-1.933-.536-2.67 0-.737.536-.738 1.405 0 1.94zm2.354-1.74c.563.37.563.972 0 1.342-.563.37-1.475.37-2.038 0-.563-.37-.563-.972 0-1.342.562-.371 1.475-.371 2.038 0z" fill="url(#paint32_linear)"/><path d="M15.988 12.695c-.39-.15-.885-.039-1.108.249-.044.056-.025.123.036.19.068.076.044.176-.05.236l-.015.01c-.12.079-.092.217.054.27l.58.207c.145.052.32-.013.34-.127.016-.088.118-.157.244-.162.1-.004.18-.028.22-.08.222-.288.088-.643-.301-.793z" fill="url(#paint33_linear)"/><path d="M15.285 12.856c1.133 0 2.052-.647 2.052-1.446 0-.798-.919-1.445-2.052-1.445s-2.052.647-2.052 1.445c0 .799.919 1.446 2.052 1.446z" fill="url(#paint34_linear)"/><path d="M15.067 10.864a.328.328 0 100-.655.328.328 0 000 .655z" fill="url(#paint35_linear)"/><path d="M14.459 11.643a.259.259 0 100-.518.259.259 0 000 .518z" fill="url(#paint36_linear)"/><path d="M15.587 11.757a.156.156 0 100-.312.156.156 0 000 .312z" fill="url(#paint37_linear)"/><path d="M6.63 16.67c1.133 0 2.051-.646 2.051-1.445 0-.798-.918-1.445-2.051-1.445s-2.052.647-2.052 1.445c0 .799.919 1.446 2.052 1.446z" fill="url(#paint38_linear)"/><path d="M6.412 14.68a.328.328 0 100-.656.328.328 0 000 .656z" fill="url(#paint39_linear)"/><path d="M5.803 15.458a.259.259 0 100-.517.259.259 0 000 .517z" fill="url(#paint40_linear)"/><path d="M6.931 15.572a.156.156 0 100-.311.156.156 0 000 .312z" fill="url(#paint41_linear)"/><path d="M11 10.854c-.388-.15-.884-.04-1.107.248-.044.057-.025.123.036.191.068.075.044.175-.05.236l-.015.01c-.12.078-.092.216.054.268l.58.208c.145.053.32-.013.34-.127.016-.088.118-.156.244-.162.1-.004.18-.028.22-.08.222-.288.088-.642-.301-.793z" fill="url(#paint42_linear)"/><path d="M11.582 15.394c.477-.08.832-.38.832-.74 0-.42-.484-.761-1.08-.761-.38 0-.714.138-.906.346l1.154 1.155z" fill="url(#paint43_linear)"/><path d="M13.542 11.699c-.886-.668-2.323-.668-3.21 0-.886.668-.886 1.752 0 2.42.887.669 2.324.669 3.21 0 .886-.668.886-1.752 0-2.42zm-2.624 1.645c-.563-.37-.563-.971 0-1.342.563-.37 1.475-.37 2.038 0 .563.37.563.972 0 1.342-.563.371-1.475.371-2.038 0z" fill="url(#paint44_linear)"/><path d="M10.602 13.742c.737.536 1.933.536 2.67 0 .737-.536.737-1.405 0-1.941s-1.933-.536-2.67 0c-.737.536-.737 1.405 0 1.94zm2.354-1.74c.563.37.563.972 0 1.342-.563.371-1.475.37-2.038 0-.563-.37-.563-.971 0-1.342.563-.37 1.475-.37 2.038 0z" fill="url(#paint45_linear)"/><path d="M3.581 13.113c-.517 0-.936.298-.936.667 0 .368.419.667.936.667.517 0 .936-.299.936-.667 0-.369-.419-.667-.936-.667zm0 .95c-.22 0-.397-.127-.397-.283 0-.157.177-.283.397-.283.22 0 .397.126.397.283 0 .156-.178.283-.397.283z" fill="url(#paint46_linear)"/><path d="M8.327 11.813c-.517 0-.937.298-.937.667 0 .368.42.667.937.667.517 0 .936-.299.936-.667 0-.369-.42-.667-.936-.667zm0 .95c-.22 0-.398-.127-.398-.283 0-.157.178-.283.398-.283.22 0 .397.127.397.283 0 .156-.178.283-.397.283z" fill="url(#paint47_linear)"/><path d="M14.371 8.457c-.517 0-.936.298-.936.667 0 .368.419.667.936.667.517 0 .936-.299.936-.667 0-.369-.419-.667-.936-.667zm0 .95c-.22 0-.398-.127-.398-.283 0-.157.178-.283.398-.283.22 0 .397.126.397.283 0 .156-.178.283-.397.283z" fill="url(#paint48_linear)"/><path d="M1.728 18.294c-.517 0-.936.3-.936.668 0 .368.419.666.936.666.517 0 .937-.298.937-.666 0-.369-.42-.668-.937-.668zm0 .95c-.22 0-.397-.126-.397-.283 0-.156.178-.283.397-.283.22 0 .398.127.398.283 0 .157-.178.284-.398.284z" fill="url(#paint49_linear)"/><path d="M6.847 11.654c1.134 0 2.052-.647 2.052-1.445 0-.799-.918-1.446-2.052-1.446-1.133 0-2.051.647-2.051 1.446 0 .798.918 1.445 2.051 1.445z" fill="url(#paint50_linear)"/><path d="M6.63 9.663a.328.328 0 100-.655.328.328 0 000 .655z" fill="url(#paint51_linear)"/><path d="M6.021 10.442a.259.259 0 100-.518.259.259 0 000 .518z" fill="url(#paint52_linear)"/><path d="M7.15 10.556a.156.156 0 100-.312.156.156 0 000 .312z" fill="url(#paint53_linear)"/><path d="M14.137 6.49c-.39-.15-.885-.038-1.108.249-.044.057-.025.123.037.191.067.075.043.175-.05.235l-.016.01c-.12.079-.092.217.054.27l.58.207c.146.052.32-.013.34-.127.016-.088.118-.156.244-.162.1-.004.18-.028.22-.08.223-.288.088-.642-.301-.793z" fill="url(#paint54_linear)"/><path d="M10.108 4.91c1.76.669 3.424 1.662 5.557 3.228 2.132 1.566 3.772 3.911 4.99 5.429.653.815 2.453.667 3.048-.262.396-.62.398-1.873-.007-2.447-1.193-1.693-3.203-3.681-5.686-5.505-2.482-1.823-4.938-3.115-6.842-3.697-.645-.198-1.353.092-1.75.712-.594.929-.256 2.182.69 2.541z" fill="url(#paint55_linear)"/></g><defs><linearGradient id="paint0_linear" x1="10.511" y1="14.065" x2="11.777" y2="16.841" gradientUnits="userSpaceOnUse"><stop stop-color="#FAA68E"/><stop offset=".206" stop-color="#FBA682"/><stop offset=".581" stop-color="#FDA861"/><stop offset="1" stop-color="#FFA936"/></linearGradient><linearGradient id="paint1_linear" x1="11.835" y1="17.025" x2="10.767" y2="13.934" gradientUnits="userSpaceOnUse"><stop stop-color="#F82814" stop-opacity="0"/><stop offset=".245" stop-color="#F12817" stop-opacity=".245"/><stop offset=".605" stop-color="#DD2820" stop-opacity=".605"/><stop offset="1" stop-color="#C0272D"/></linearGradient><linearGradient id="paint2_linear" x1="6.826" y1="10.408" x2="12.466" y2="17.162" gradientUnits="userSpaceOnUse"><stop stop-color="#FFD945"/><stop offset=".304" stop-color="#FFCD3E"/><stop offset=".856" stop-color="#FFAD2B"/><stop offset="1" stop-color="#FFA325"/></linearGradient><linearGradient id="paint3_linear" x1="14.634" y1="10.038" x2="16.635" y2="7.202" gradientUnits="userSpaceOnUse"><stop stop-color="#F82814" stop-opacity="0"/><stop offset="1" stop-color="#C0272D"/></linearGradient><linearGradient id="paint4_linear" x1="13.706" y1="11.157" x2="4.689" y2="-2.79" gradientUnits="userSpaceOnUse"><stop stop-color="#F82814" stop-opacity="0"/><stop offset="1" stop-color="#C0272D"/></linearGradient><linearGradient id="paint5_linear" x1="9.091" y1="12.171" x2="5.292" y2="5.054" gradientUnits="userSpaceOnUse"><stop stop-color="#F82814" stop-opacity="0"/><stop offset="1" stop-color="#C0272D"/></linearGradient><linearGradient id="paint6_linear" x1="15.128" y1="14.17" x2="11.346" y2="7.045" gradientUnits="userSpaceOnUse"><stop stop-color="#F82814" stop-opacity="0"/><stop offset="1" stop-color="#C0272D"/></linearGradient><linearGradient id="paint7_linear" x1="6.763" y1="18.066" x2="3.724" y2="12.899" gradientUnits="userSpaceOnUse"><stop stop-color="#F82814" stop-opacity="0"/><stop offset="1" stop-color="#C0272D"/></linearGradient><linearGradient id="paint8_linear" x1="10.006" y1="9.104" x2="10.469" y2="10.225" gradientUnits="userSpaceOnUse"><stop stop-color="#BADA00"/><stop offset=".227" stop-color="#B0CE00"/><stop offset=".638" stop-color="#95AE00"/><stop offset="1" stop-color="#798C00"/></linearGradient><linearGradient id="paint9_linear" x1="10.223" y1="9.497" x2="9.782" y2="8.809" gradientUnits="userSpaceOnUse"><stop stop-color="#798C00" stop-opacity="0"/><stop offset=".654" stop-color="#556100" stop-opacity=".654"/><stop offset="1" stop-color="#464F00"/></linearGradient><linearGradient id="paint10_linear" x1="9.873" y1="9.897" x2="9.525" y2="9.354" gradientUnits="userSpaceOnUse"><stop stop-color="#798C00" stop-opacity="0"/><stop offset=".654" stop-color="#556100" stop-opacity=".654"/><stop offset="1" stop-color="#464F00"/></linearGradient><linearGradient id="paint11_linear" x1="10.423" y1="9.942" x2="10.213" y2="9.615" gradientUnits="userSpaceOnUse"><stop stop-color="#798C00" stop-opacity="0"/><stop offset=".654" stop-color="#556100" stop-opacity=".654"/><stop offset="1" stop-color="#464F00"/></linearGradient><linearGradient id="paint12_linear" x1="5.532" y1="12.98" x2="5.994" y2="14.101" gradientUnits="userSpaceOnUse"><stop stop-color="#BADA00"/><stop offset=".227" stop-color="#B0CE00"/><stop offset=".638" stop-color="#95AE00"/><stop offset="1" stop-color="#798C00"/></linearGradient><linearGradient id="paint13_linear" x1="5.747" y1="13.376" x2="5.306" y2="12.688" gradientUnits="userSpaceOnUse"><stop stop-color="#798C00" stop-opacity="0"/><stop offset=".654" stop-color="#556100" stop-opacity=".654"/><stop offset="1" stop-color="#464F00"/></linearGradient><linearGradient id="paint14_linear" x1="5.396" y1="13.776" x2="5.048" y2="13.233" gradientUnits="userSpaceOnUse"><stop stop-color="#798C00" stop-opacity="0"/><stop offset=".654" stop-color="#556100" stop-opacity=".654"/><stop offset="1" stop-color="#464F00"/></linearGradient><linearGradient id="paint15_linear" x1="5.946" y1="13.821" x2="5.736" y2="13.493" gradientUnits="userSpaceOnUse"><stop stop-color="#798C00" stop-opacity="0"/><stop offset=".654" stop-color="#556100" stop-opacity=".654"/><stop offset="1" stop-color="#464F00"/></linearGradient><linearGradient id="paint16_linear" x1="11.103" y1="14.095" x2="11.565" y2="15.216" gradientUnits="userSpaceOnUse"><stop stop-color="#BADA00"/><stop offset=".227" stop-color="#B0CE00"/><stop offset=".638" stop-color="#95AE00"/><stop offset="1" stop-color="#798C00"/></linearGradient><linearGradient id="paint17_linear" x1="11.321" y1="14.49" x2="10.88" y2="13.802" gradientUnits="userSpaceOnUse"><stop stop-color="#798C00" stop-opacity="0"/><stop offset=".654" stop-color="#556100" stop-opacity=".654"/><stop offset="1" stop-color="#464F00"/></linearGradient><linearGradient id="paint18_linear" x1="10.97" y1="14.89" x2="10.622" y2="14.347" gradientUnits="userSpaceOnUse"><stop stop-color="#798C00" stop-opacity="0"/><stop offset=".654" stop-color="#556100" stop-opacity=".654"/><stop offset="1" stop-color="#464F00"/></linearGradient><linearGradient id="paint19_linear" x1="11.52" y1="14.935" x2="11.31" y2="14.608" gradientUnits="userSpaceOnUse"><stop stop-color="#798C00" stop-opacity="0"/><stop offset=".654" stop-color="#556100" stop-opacity=".654"/><stop offset="1" stop-color="#464F00"/></linearGradient><linearGradient id="paint20_linear" x1="19.071" y1="11.575" x2="19.534" y2="12.695" gradientUnits="userSpaceOnUse"><stop stop-color="#BADA00"/><stop offset=".227" stop-color="#B0CE00"/><stop offset=".638" stop-color="#95AE00"/><stop offset="1" stop-color="#798C00"/></linearGradient><linearGradient id="paint21_linear" x1="19.293" y1="11.968" x2="18.852" y2="11.28" gradientUnits="userSpaceOnUse"><stop stop-color="#798C00" stop-opacity="0"/><stop offset=".654" stop-color="#556100" stop-opacity=".654"/><stop offset="1" stop-color="#464F00"/></linearGradient><linearGradient id="paint22_linear" x1="18.942" y1="12.368" x2="18.594" y2="11.825" gradientUnits="userSpaceOnUse"><stop stop-color="#798C00" stop-opacity="0"/><stop offset=".654" stop-color="#556100" stop-opacity=".654"/><stop offset="1" stop-color="#464F00"/></linearGradient><linearGradient id="paint23_linear" x1="19.492" y1="12.413" x2="19.282" y2="12.085" gradientUnits="userSpaceOnUse"><stop stop-color="#798C00" stop-opacity="0"/><stop offset=".654" stop-color="#556100" stop-opacity=".654"/><stop offset="1" stop-color="#464F00"/></linearGradient><linearGradient id="paint24_linear" x1="10.064" y1="4.577" x2="10.527" y2="5.697" gradientUnits="userSpaceOnUse"><stop stop-color="#BADA00"/><stop offset=".227" stop-color="#B0CE00"/><stop offset=".638" stop-color="#95AE00"/><stop offset="1" stop-color="#798C00"/></linearGradient><linearGradient id="paint25_linear" x1="10.281" y1="4.967" x2="9.84" y2="4.279" gradientUnits="userSpaceOnUse"><stop stop-color="#798C00" stop-opacity="0"/><stop offset=".654" stop-color="#556100" stop-opacity=".654"/><stop offset="1" stop-color="#464F00"/></linearGradient><linearGradient id="paint26_linear" x1="9.93" y1="5.368" x2="9.582" y2="4.824" gradientUnits="userSpaceOnUse"><stop stop-color="#798C00" stop-opacity="0"/><stop offset=".654" stop-color="#556100" stop-opacity=".654"/><stop offset="1" stop-color="#464F00"/></linearGradient><linearGradient id="paint27_linear" x1="10.48" y1="5.412" x2="10.27" y2="5.085" gradientUnits="userSpaceOnUse"><stop stop-color="#798C00" stop-opacity="0"/><stop offset=".654" stop-color="#556100" stop-opacity=".654"/><stop offset="1" stop-color="#464F00"/></linearGradient><linearGradient id="paint28_linear" x1="10.661" y1="5.619" x2="9.831" y2="8.04" gradientUnits="userSpaceOnUse"><stop stop-color="#FFDECF"/><stop offset=".379" stop-color="#FDC4B0"/><stop offset=".765" stop-color="#FBAE97"/><stop offset="1" stop-color="#FAA68E"/></linearGradient><linearGradient id="paint29_linear" x1="9.567" y1="8.698" x2="10.237" y2="6.744" gradientUnits="userSpaceOnUse"><stop stop-color="#FFDECF"/><stop offset=".379" stop-color="#FDC4B0"/><stop offset=".765" stop-color="#FBAE97"/><stop offset="1" stop-color="#FAA68E"/></linearGradient><linearGradient id="paint30_linear" x1="1.767" y1="17.272" x2="2.527" y2="18.513" gradientUnits="userSpaceOnUse"><stop stop-color="#A57C52"/><stop offset=".134" stop-color="#A26C4A"/><stop offset=".515" stop-color="#994336"/><stop offset=".817" stop-color="#942A2A"/><stop offset="1" stop-color="#922125"/></linearGradient><linearGradient id="paint31_linear" x1="4.315" y1="14.764" x2="3.606" y2="16.831" gradientUnits="userSpaceOnUse"><stop stop-color="#FFDECF"/><stop offset=".379" stop-color="#FDC4B0"/><stop offset=".765" stop-color="#FBAE97"/><stop offset="1" stop-color="#FAA68E"/></linearGradient><linearGradient id="paint32_linear" x1="3.384" y1="17.392" x2="3.956" y2="15.724" gradientUnits="userSpaceOnUse"><stop stop-color="#FFDECF"/><stop offset=".379" stop-color="#FDC4B0"/><stop offset=".765" stop-color="#FBAE97"/><stop offset="1" stop-color="#FAA68E"/></linearGradient><linearGradient id="paint33_linear" x1="15.332" y1="12.883" x2="16.339" y2="14.555" gradientUnits="userSpaceOnUse"><stop stop-color="#A57C52"/><stop offset=".134" stop-color="#A26C4A"/><stop offset=".515" stop-color="#994336"/><stop offset=".817" stop-color="#942A2A"/><stop offset="1" stop-color="#922125"/></linearGradient><linearGradient id="paint34_linear" x1="14.847" y1="10.349" x2="15.725" y2="12.477" gradientUnits="userSpaceOnUse"><stop stop-color="#FF6359"/><stop offset=".224" stop-color="#FE5B50"/><stop offset=".595" stop-color="#FC4637"/><stop offset="1" stop-color="#F82814"/></linearGradient><linearGradient id="paint35_linear" x1="15.298" y1="11.03" x2="14.46" y2="9.723" gradientUnits="userSpaceOnUse"><stop stop-color="#F82814" stop-opacity="0"/><stop offset=".245" stop-color="#F12817" stop-opacity=".245"/><stop offset=".605" stop-color="#DD2820" stop-opacity=".605"/><stop offset="1" stop-color="#C0272D"/></linearGradient><linearGradient id="paint36_linear" x1="14.633" y1="11.79" x2="13.972" y2="10.758" gradientUnits="userSpaceOnUse"><stop stop-color="#F82814" stop-opacity="0"/><stop offset=".245" stop-color="#F12817" stop-opacity=".245"/><stop offset=".605" stop-color="#DD2820" stop-opacity=".605"/><stop offset="1" stop-color="#C0272D"/></linearGradient><linearGradient id="paint37_linear" x1="15.677" y1="11.875" x2="15.278" y2="11.253" gradientUnits="userSpaceOnUse"><stop stop-color="#F82814" stop-opacity="0"/><stop offset=".245" stop-color="#F12817" stop-opacity=".245"/><stop offset=".605" stop-color="#DD2820" stop-opacity=".605"/><stop offset="1" stop-color="#C0272D"/></linearGradient><linearGradient id="paint38_linear" x1="6.192" y1="14.164" x2="7.07" y2="16.292" gradientUnits="userSpaceOnUse"><stop stop-color="#FF6359"/><stop offset=".224" stop-color="#FE5B50"/><stop offset=".595" stop-color="#FC4637"/><stop offset="1" stop-color="#F82814"/></linearGradient><linearGradient id="paint39_linear" x1="6.639" y1="14.848" x2="5.802" y2="13.541" gradientUnits="userSpaceOnUse"><stop stop-color="#F82814" stop-opacity="0"/><stop offset=".245" stop-color="#F12817" stop-opacity=".245"/><stop offset=".605" stop-color="#DD2820" stop-opacity=".605"/><stop offset="1" stop-color="#C0272D"/></linearGradient><linearGradient id="paint40_linear" x1="5.974" y1="15.608" x2="5.312" y2="14.576" gradientUnits="userSpaceOnUse"><stop stop-color="#F82814" stop-opacity="0"/><stop offset=".245" stop-color="#F12817" stop-opacity=".245"/><stop offset=".605" stop-color="#DD2820" stop-opacity=".605"/><stop offset="1" stop-color="#C0272D"/></linearGradient><linearGradient id="paint41_linear" x1="7.018" y1="15.693" x2="6.619" y2="15.071" gradientUnits="userSpaceOnUse"><stop stop-color="#F82814" stop-opacity="0"/><stop offset=".245" stop-color="#F12817" stop-opacity=".245"/><stop offset=".605" stop-color="#DD2820" stop-opacity=".605"/><stop offset="1" stop-color="#C0272D"/></linearGradient><linearGradient id="paint42_linear" x1="10.345" y1="11.041" x2="11.352" y2="12.713" gradientUnits="userSpaceOnUse"><stop stop-color="#A57C52"/><stop offset=".134" stop-color="#A26C4A"/><stop offset=".515" stop-color="#994336"/><stop offset=".817" stop-color="#942A2A"/><stop offset="1" stop-color="#922125"/></linearGradient><linearGradient id="paint43_linear" x1="12.153" y1="15.763" x2="10.144" y2="11.964" gradientUnits="userSpaceOnUse"><stop stop-color="#798C00" stop-opacity="0"/><stop offset=".654" stop-color="#556100" stop-opacity=".654"/><stop offset="1" stop-color="#464F00"/></linearGradient><linearGradient id="paint44_linear" x1="12.458" y1="11.37" x2="11.75" y2="13.437" gradientUnits="userSpaceOnUse"><stop stop-color="#FFDECF"/><stop offset=".379" stop-color="#FDC4B0"/><stop offset=".765" stop-color="#FBAE97"/><stop offset="1" stop-color="#FAA68E"/></linearGradient><linearGradient id="paint45_linear" x1="11.527" y1="13.998" x2="12.099" y2="12.33" gradientUnits="userSpaceOnUse"><stop stop-color="#FFDECF"/><stop offset=".379" stop-color="#FDC4B0"/><stop offset=".765" stop-color="#FBAE97"/><stop offset="1" stop-color="#FAA68E"/></linearGradient><linearGradient id="paint46_linear" x1="3.201" y1="13.02" x2="3.635" y2="13.887" gradientUnits="userSpaceOnUse"><stop stop-color="#8A7889"/><stop offset=".334" stop-color="#867385"/><stop offset=".704" stop-color="#7B667B"/><stop offset="1" stop-color="#6E566E"/></linearGradient><linearGradient id="paint47_linear" x1="7.947" y1="11.72" x2="8.38" y2="12.587" gradientUnits="userSpaceOnUse"><stop stop-color="#8A7889"/><stop offset=".334" stop-color="#867385"/><stop offset=".704" stop-color="#7B667B"/><stop offset="1" stop-color="#6E566E"/></linearGradient><linearGradient id="paint48_linear" x1="13.991" y1="8.364" x2="14.425" y2="9.231" gradientUnits="userSpaceOnUse"><stop stop-color="#8A7889"/><stop offset=".334" stop-color="#867385"/><stop offset=".704" stop-color="#7B667B"/><stop offset="1" stop-color="#6E566E"/></linearGradient><linearGradient id="paint49_linear" x1="1.348" y1="18.201" x2="1.782" y2="19.069" gradientUnits="userSpaceOnUse"><stop stop-color="#8A7889"/><stop offset=".334" stop-color="#867385"/><stop offset=".704" stop-color="#7B667B"/><stop offset="1" stop-color="#6E566E"/></linearGradient><linearGradient id="paint50_linear" x1="6.41" y1="9.148" x2="7.288" y2="11.275" gradientUnits="userSpaceOnUse"><stop stop-color="#FF6359"/><stop offset=".224" stop-color="#FE5B50"/><stop offset=".595" stop-color="#FC4637"/><stop offset="1" stop-color="#F82814"/></linearGradient><linearGradient id="paint51_linear" x1="6.856" y1="9.829" x2="6.019" y2="8.522" gradientUnits="userSpaceOnUse"><stop stop-color="#F82814" stop-opacity="0"/><stop offset=".245" stop-color="#F12817" stop-opacity=".245"/><stop offset=".605" stop-color="#DD2820" stop-opacity=".605"/><stop offset="1" stop-color="#C0272D"/></linearGradient><linearGradient id="paint52_linear" x1="6.191" y1="10.589" x2="5.53" y2="9.557" gradientUnits="userSpaceOnUse"><stop stop-color="#F82814" stop-opacity="0"/><stop offset=".245" stop-color="#F12817" stop-opacity=".245"/><stop offset=".605" stop-color="#DD2820" stop-opacity=".605"/><stop offset="1" stop-color="#C0272D"/></linearGradient><linearGradient id="paint53_linear" x1="7.235" y1="10.674" x2="6.836" y2="10.052" gradientUnits="userSpaceOnUse"><stop stop-color="#F82814" stop-opacity="0"/><stop offset=".245" stop-color="#F12817" stop-opacity=".245"/><stop offset=".605" stop-color="#DD2820" stop-opacity=".605"/><stop offset="1" stop-color="#C0272D"/></linearGradient><linearGradient id="paint54_linear" x1="13.482" y1="6.678" x2="14.488" y2="8.35" gradientUnits="userSpaceOnUse"><stop stop-color="#A57C52"/><stop offset=".134" stop-color="#A26C4A"/><stop offset=".515" stop-color="#994336"/><stop offset=".817" stop-color="#942A2A"/><stop offset="1" stop-color="#922125"/></linearGradient><linearGradient id="paint55_linear" x1="17.544" y1="6.229" x2="15.787" y2="9.1" gradientUnits="userSpaceOnUse"><stop stop-color="#FAA68E"/><stop offset=".206" stop-color="#FBA682"/><stop offset=".581" stop-color="#FDA861"/><stop offset="1" stop-color="#FFA936"/></linearGradient><clipPath id="clip0"><path fill="#fff" d="M0 0h24v24H0z"/></clipPath></defs></svg>