<svg width="24" height="24" fill="none" xmlns="http://www.w3.org/2000/svg"><g clip-path="url(#clip0)"><path d="M2.335 18.444h19.41c.209-.139 1.308-1.904 1.133-2.68-.177-.786.316-1.821.004-2.552-.312-.731-1.074-1.012-1.513-1.67-.433-.65-.335-1.808-.885-2.37-.552-.565-1.631-.41-2.261-.845-.638-.44-.951-1.555-1.651-1.856-.7-.3-1.648.274-2.393.121-.736-.15-1.416-1.06-2.18-1.06-.764 0-1.444.91-2.18 1.06-.746.153-1.693-.421-2.393-.12-.7.3-1.014 1.415-1.651 1.855-.63.435-1.71.28-2.262.845-.55.562-.451 1.72-.885 2.37-.438.658-1.2.939-1.512 1.67-.312.73.18 1.766.004 2.552-.175.776 1.006 2.541 1.215 2.68z" fill="#A0E557"/><path d="M8.907 8.606c-1.597-1.597-4.245-1.538-5.914.131-1.67 1.67-1.728 4.318-.131 5.914 1.597 1.597 4.244 1.538 5.914-.13 1.67-1.67 1.728-4.318.131-5.915z" fill="#FD8F31"/><path d="M5.698 14.307c-.679 0-1.309-.255-1.773-.72-1.007-1.007-.949-2.706.132-3.786A2.838 2.838 0 016.07 8.95c.68 0 1.31.256 1.773.72.48.479.735 1.13.72 1.832a2.85 2.85 0 01-.851 1.955 2.838 2.838 0 01-2.014.85z" fill="#EFA335"/><path d="M21.004 8.737c-1.67-1.669-4.317-1.728-5.914-.13-1.597 1.596-1.538 4.244.131 5.913 1.67 1.67 4.318 1.728 5.914.132 1.597-1.597 1.538-4.245-.13-5.915z" fill="#FD8F31"/><path d="M18.3 14.307c.678 0 1.308-.255 1.772-.72 1.008-1.007.95-2.706-.131-3.786a2.838 2.838 0 00-2.014-.851c-.679 0-1.309.256-1.773.72-.48.479-.735 1.13-.719 1.832a2.85 2.85 0 00.85 1.955c.55.548 1.264.85 2.014.85z" fill="#EFA335"/><path d="M5.023 16.046c-.16-1.095-1.41-1.817-2.793-1.615-1.383.202-2.374 1.254-2.213 2.348.16 1.094 1.41 1.817 2.793 1.615 1.382-.202 2.373-1.254 2.213-2.348zM21.77 14.43c-1.382-.203-2.633.52-2.793 1.615-.16 1.094.83 2.145 2.213 2.348 1.383.202 2.633-.52 2.793-1.615.16-1.094-.83-2.146-2.213-2.348zM14.399 8.61c0-.922-1.075-1.67-2.4-1.67-1.326 0-2.4.748-2.4 1.67 0 .923 1.074 1.671 2.4 1.671 1.325 0 2.4-.748 2.4-1.67z" fill="#FC4E51"/><path d="M11.999 8.058c-5.568 0-10.113 4.382-10.373 9.886-.013.272.206.5.479.5h19.788a.479.479 0 00.479-.5c-.26-5.504-4.805-9.886-10.373-9.886z" fill="#FCCF3F"/><path d="M11.999 8.058c-.472 0-.936.033-1.39.093 5.077.68 8.993 5.029 8.993 10.293h2.29a.479.479 0 00.48-.5C22.112 12.44 17.567 8.058 12 8.058z" fill="#EFA335"/></g><defs><clipPath id="clip0"><path fill="#fff" d="M0 0h24v24H0z"/></clipPath></defs></svg>